<svg xmlns="http://www.w3.org/2000/svg" viewBox="0 0 167.52 305.38"><defs><style>.cls-1{fill:#155257;}.cls-2{fill:#83c8c0;}</style></defs><g id="logos"><path class="cls-1" d="M60.26,242.85v-9.22q0-14.88,5.87-21.72t17.63-6.83q11.74,0,17.62,6.83t5.88,21.72v9.22h17.06v-11q0-22.89-11-34.21-9.46-9.77-24.64-11.09H78.78q-15.23,1.35-24.66,11.09Q43.2,209,43.2,231.89v11Z"/><path class="cls-2" d="M124.76,42.16a41,41,0,0,1-82,0Z"/><polygon class="cls-1" points="42.74 175.84 42.74 175.9 124.78 175.9 124.78 93.85 124.77 93.85 42.74 175.84"/><polygon class="cls-2" points="124.77 93.85 42.74 93.85 42.74 175.84 124.77 93.85"/><circle class="cls-2" cx="83.63" cy="242.85" r="15.45"/></g></svg>