<svg xmlns="http://www.w3.org/2000/svg" viewBox="0 0 340.39 268.48"><defs><style>.cls-1{font-size:60.34px;font-family:OptimisticDisplay-Medium, Optimistic Display;font-weight:500;letter-spacing:-0.04em;}.cls-1,.cls-8{fill:#155257;}.cls-2{letter-spacing:-0.03em;}.cls-3{letter-spacing:-0.02em;}.cls-4{letter-spacing:-0.02em;}.cls-5{letter-spacing:0em;}.cls-6{letter-spacing:-0.02em;}.cls-7{letter-spacing:0.04em;}.cls-9{fill:#83c8c0;}</style></defs><g id="logos"><text class="cls-1" transform="translate(28.84 225.81)">P<tspan class="cls-2" x="39.74" y="0">o</tspan><tspan class="cls-3" x="74.55" y="0">ly</tspan><tspan class="cls-4" x="120.99" y="0">m</tspan><tspan class="cls-5" x="175.57" y="0">et</tspan><tspan class="cls-6" x="234.98" y="0">i</tspan><tspan class="cls-7" x="248.98" y="0">s</tspan></text><path class="cls-8" d="M156.77,153.44v-5.05q0-8.17,3.22-11.92t9.67-3.75q6.45,0,9.67,3.75t3.23,11.92v5.05h9.36v-6q0-12.56-6-18.77a20.65,20.65,0,0,0-13.52-6.08h-5.45a20.61,20.61,0,0,0-13.53,6.08q-6,6.21-6,18.77v6Z"/><path class="cls-9" d="M192.16,43.33a22.5,22.5,0,1,1-45,0Z"/><polygon class="cls-8" points="147.16 116.68 147.16 116.71 192.17 116.71 192.17 71.7 192.16 71.7 147.16 116.68"/><polygon class="cls-9" points="192.17 71.7 147.16 71.7 147.16 116.68 192.17 71.7"/><circle class="cls-9" cx="169.6" cy="153.44" r="8.47"/></g></svg>