<svg xmlns="http://www.w3.org/2000/svg" viewBox="0 0 32 32"><defs><style>.cls-1{fill:#155257;}.cls-2{fill:#83c8c0;}</style></defs><g id="logos"><path class="cls-1" d="M11.43,29V27.2A6.44,6.44,0,0,1,12.57,23,4.3,4.3,0,0,1,16,21.64,4.3,4.3,0,0,1,19.43,23a6.44,6.44,0,0,1,1.14,4.23V29h3.32V26.86q0-4.45-2.13-6.66A7.34,7.34,0,0,0,17,18.05H15a7.34,7.34,0,0,0-4.8,2.15q-2.12,2.21-2.12,6.66V29Z"/><polygon class="cls-1" points="8.02 15.96 8.02 15.96 23.98 15.96 23.98 0 23.98 0 8.02 15.96"/><polygon class="cls-2" points="23.98 0 8.02 0 8.02 15.96 23.98 0"/><circle class="cls-2" cx="15.98" cy="28.99" r="3.01"/></g></svg>