<svg xmlns="http://www.w3.org/2000/svg" viewBox="0 0 384.08 129.61"><defs><style>.cls-1{font-size:60.34px;font-family:OptimisticDisplay-Medium, Optimistic Display;font-weight:500;letter-spacing:-0.04em;}.cls-1,.cls-8{fill:#155257;}.cls-2{letter-spacing:-0.03em;}.cls-3{letter-spacing:-0.02em;}.cls-4{letter-spacing:-0.02em;}.cls-5{letter-spacing:0em;}.cls-6{letter-spacing:-0.02em;}.cls-7{letter-spacing:0.04em;}.cls-9{fill:#83c8c0;}</style></defs><g id="logos"><text class="cls-1" transform="translate(72.96 86.85)">P<tspan class="cls-2" x="39.74" y="0">o</tspan><tspan class="cls-3" x="74.55" y="0">ly</tspan><tspan class="cls-4" x="120.99" y="0">m</tspan><tspan class="cls-5" x="175.57" y="0">et</tspan><tspan class="cls-6" x="234.98" y="0">i</tspan><tspan class="cls-7" x="248.98" y="0">s</tspan></text><path class="cls-8" d="M40,95.64V92.48c0-3.4.67-5.87,2-7.43s3.35-2.34,6-2.34,4.7.78,6,2.34,2,4,2,7.43v3.16h5.84V91.89q0-7.85-3.75-11.72a12.86,12.86,0,0,0-8.44-3.79h-3.4a12.82,12.82,0,0,0-8.44,3.79q-3.75,3.89-3.74,11.72v3.75Z"/><path class="cls-9" d="M62.08,26.92a14,14,0,1,1-28.07,0Z"/><polygon class="cls-8" points="34 72.69 34 72.71 62.09 72.71 62.09 44.62 62.09 44.62 34 72.69"/><polygon class="cls-9" points="62.09 44.62 34 44.62 34 72.69 62.09 44.62"/><circle class="cls-9" cx="48" cy="95.64" r="5.29"/></g></svg>