<?xml version="1.0" encoding="UTF-8"?><svg xmlns="http://www.w3.org/2000/svg" xmlns:xlink="http://www.w3.org/1999/xlink" viewBox="0 0 16 16"><defs><style>.g{fill:none;}.h{fill:#006b4e;}.i{fill:#289664;}.j{clip-path:url(#d);}</style><clipPath id="d"><rect class="g" x="0" y="0" width="16" height="16"/></clipPath></defs><g id="a"/><g id="b"><g id="c"/><g class="j"><path class="h" d="M13.23,4.53c-.52-.7-3.36-3.43-3.36-2.61,0,.53-.01,1.18-.01,1.18-2.58,0-5.64-.46-7.8,2.13C-.15,7.89-2.3,10.63-4.24,10.64h-.2c-.65-.05-1.41-.16-2.01-.42-1.31-.57-2.14-1.83-3.01-2.9-.7-.86-2.12,.26-1.54,1.18,1.58,2.51,4.38,4.66,7.59,4.15h0c.52-.06,1.01-.19,1.44-.39C-.07,11.39,2.05,9.07,3.1,7.59c1.73-2.43,3.92-2.37,6.04-2.34h3.64s.97-.03,.46-.73Z"/><path class="i" d="M12.78,10.75h-3.64c-2.12,.02-4.31,.08-6.04-2.35C2.05,6.93,.45,5.04-1.54,3.98c-.63-.34-1.99-.67-2.71-.66h0c-2.83-.14-5.32,1.93-6.75,4.21-.59,.93,.83,2.05,1.54,1.18,.87-1.07,1.7-2.33,3.01-2.9,.6-.26,1.35-.41,2.01-.43,1.16-.03,1.99,.63,2.71,1.21,1.23,1.05,2.5,2.63,3.8,4.19,2.16,2.59,5.22,2.13,7.8,2.13,0,0,.01,.66,.01,1.18,0,.82,2.84-1.91,3.36-2.61,.52-.7-.46-.72-.46-.72Z"/></g></g><g id="e"/><g id="f"/></svg>