<?xml version="1.0" encoding="UTF-8"?><svg xmlns="http://www.w3.org/2000/svg" xmlns:xlink="http://www.w3.org/1999/xlink" viewBox="0 0 32 32"><defs><style>.g{fill:none;}.h{fill:#006b4e;}.i{fill:#289664;}.j{clip-path:url(#d);}</style><clipPath id="d"><rect class="g" y="0" width="32" height="32"/></clipPath></defs><g id="a"/><g id="b"><g id="c"/><g class="j"><path class="h" d="M28.81,8.58c-1.1-1.49-7.17-7.32-7.17-5.57,0,1.13-.02,2.53-.02,2.53-5.51,0-12.05-.99-16.66,4.54C.22,15.75-4.38,21.63-8.53,21.64h-.43c-1.39-.11-3.01-.35-4.29-.91-2.8-1.22-4.57-3.92-6.43-6.2-1.5-1.85-4.53,.55-3.28,2.53,3.38,5.36,9.36,9.96,16.22,8.87h-.02c1.1-.14,2.16-.4,3.08-.83C.38,23.23,4.92,18.28,7.16,15.13c3.69-5.18,8.38-5.06,12.9-5l7.78-.02s2.07-.05,.97-1.54Z"/><path class="i" d="M27.84,21.88l-7.78-.02c-4.52,.06-9.21,.19-12.9-5C4.92,13.72,1.5,9.67-2.75,7.41c-1.36-.72-4.25-1.42-5.78-1.42h0c-6.05-.29-11.36,4.12-14.42,8.99-1.25,1.99,1.78,4.38,3.28,2.53,1.86-2.29,3.63-4.98,6.43-6.2,1.28-.56,2.89-.88,4.29-.92,2.47-.06,4.25,1.35,5.78,2.57,2.62,2.23,5.35,5.62,8.13,8.95,4.61,5.53,11.15,4.54,16.66,4.54,0,0,.02,1.4,.02,2.53,0,1.75,6.07-4.08,7.17-5.57,1.1-1.49-.97-1.54-.97-1.54Z"/></g></g><g id="e"/><g id="f"/></svg>