<?xml version="1.0" encoding="UTF-8"?><svg xmlns="http://www.w3.org/2000/svg" viewBox="0 0 541.8 473.59"><defs><style>.f{fill:#006b4e;}.g{fill:#289664;}</style></defs><g id="a"/><g id="b"><g id="c"/><g><path class="f" d="M107.17,368.59v-105h18.75l36.75,64.43,36.52-64.43h18.75v105h-15.3v-83.1l-32.85,57.9h-14.48l-32.85-57.53v82.73h-15.3Z"/><path class="f" d="M244.04,368.59v-105h44.93c13.15,0,23,2.96,29.55,8.89,6.55,5.93,9.83,13.91,9.83,23.96,0,7.6-1.88,14.05-5.62,19.35-3.75,5.3-9.4,9.08-16.95,11.33,4.55,6.45,9,13.15,13.35,20.1,4.35,6.95,8.52,14.08,12.52,21.38h-18.38c-3.65-7.1-7.49-14.02-11.51-20.77-4.03-6.75-7.96-12.92-11.81-18.53h-30.15v39.3h-15.75Zm43.43-90.38h-27.68v36.75h27.68c8.5,0,14.75-1.51,18.75-4.54,4-3.02,6-7.64,6-13.84s-2-10.81-6-13.84c-4-3.02-10.25-4.54-18.75-4.54Z"/><path class="f" d="M353.62,368.59v-105h43.95c13.15,0,22.97,3.14,29.48,9.41,6.5,6.28,9.75,14.79,9.75,25.54s-3.25,19.2-9.75,25.5c-6.5,6.3-16.33,9.45-29.48,9.45h-28.2v35.1h-15.75Zm42.45-90.3h-26.7v40.5h26.7c8.55,0,14.79-1.69,18.71-5.06,3.92-3.38,5.89-8.44,5.89-15.19s-1.96-11.81-5.89-15.19c-3.93-3.38-10.16-5.06-18.71-5.06Z"/></g><path class="f" d="M364.14,128.88c-4.35-5.88-28.3-28.89-28.3-21.99,0,4.45-.09,9.97-.09,9.97-21.73,0-47.56-3.89-65.74,17.92-18.66,22.39-36.82,45.57-53.19,45.6l-1.69,.04c-5.49-.48-11.88-1.42-16.92-3.62-11.03-4.81-18.02-15.46-25.35-24.48-5.92-7.28-17.88,2.15-12.94,9.98,13.35,21.15,36.93,39.31,63.98,34.98h-.07c4.35-.54,8.53-1.59,12.15-3.26,15.99-7.36,33.88-26.9,42.72-39.31,14.57-20.46,33.05-19.94,50.91-19.71l30.68-.06s8.18-.19,3.84-6.07Z"/><path class="g" d="M360.3,181.33l-30.68-.06c-17.85,.23-36.33,.75-50.91-19.71-8.84-12.41-22.32-28.38-39.07-37.29-5.35-2.85-16.77-5.62-22.81-5.59h0c-23.88-1.15-44.81,16.24-56.9,35.47-4.93,7.84,7.02,17.26,12.94,9.98,7.34-9.02,14.33-19.67,25.35-24.48,5.04-2.2,11.42-3.49,16.92-3.62,9.76-.23,16.76,5.31,22.81,10.16,10.34,8.81,21.11,22.18,32.06,35.31,18.18,21.81,44,17.92,65.74,17.92,0,0,.09,5.52,.09,9.97,0,6.9,23.95-16.11,28.3-21.99,4.35-5.88-3.84-6.07-3.84-6.07Z"/></g><g id="d"/><g id="e"/></svg>