<?xml version="1.0" encoding="UTF-8"?><svg xmlns="http://www.w3.org/2000/svg" viewBox="0 0 416.4 315.33"><defs><style>.f{fill:#67788a;}</style></defs><g id="a"/><g id="b"><g id="c"/><path d="M309.8,128.27c-4.35-5.88-28.3-28.89-28.3-21.99,0,4.45-.09,9.97-.09,9.97-21.73,0-47.56-3.89-65.74,17.92-18.66,22.39-36.82,45.57-53.19,45.6l-1.69,.04c-5.49-.48-11.88-1.42-16.92-3.62-11.03-4.81-18.02-15.46-25.35-24.48-5.92-7.28-17.88,2.15-12.94,9.98,13.35,21.15,36.93,39.31,63.98,34.98h-.07c4.35-.54,8.53-1.59,12.15-3.26,15.99-7.36,33.88-26.9,42.72-39.31,14.57-20.46,33.05-19.94,50.91-19.71l30.68-.06s8.18-.19,3.84-6.07Z"/><path class="f" d="M305.96,180.73l-30.68-.06c-17.85,.23-36.33,.75-50.91-19.71-8.84-12.41-22.32-28.38-39.07-37.29-5.35-2.85-16.77-5.62-22.81-5.59h0c-23.88-1.15-44.81,16.24-56.9,35.47-4.93,7.84,7.02,17.26,12.94,9.98,7.34-9.02,14.33-19.67,25.35-24.48,5.04-2.2,11.42-3.49,16.92-3.62,9.76-.23,16.76,5.31,22.81,10.16,10.34,8.81,21.11,22.18,32.06,35.31,18.18,21.81,44,17.92,65.74,17.92,0,0,.09,5.52,.09,9.97,0,6.9,23.95-16.11,28.3-21.99,4.35-5.88-3.84-6.07-3.84-6.07Z"/></g><g id="d"/><g id="e"/></svg>