<?xml version="1.0" encoding="UTF-8"?><svg xmlns="http://www.w3.org/2000/svg" viewBox="0 0 1920 1080"><defs><style>.f{fill:#006b4e;}.g{fill:#fff;}.h{fill:#289664;}</style></defs><g id="a"><rect class="g" x="6.96" y="7.23" width="1909.26" height="1068.2"/></g><g id="b"><g id="c"/><g><path class="f" d="M897.52,630.83v-179.81h32.11l62.93,110.33,62.55-110.33h32.11v179.81h-26.2v-142.31l-56.25,99.15h-24.79l-56.26-98.51v141.67h-26.2Z"/><path class="f" d="M1131.91,630.83v-179.81h76.93c22.52,0,39.39,5.07,50.6,15.22,11.22,10.15,16.83,23.83,16.83,41.04,0,13.02-3.21,24.06-9.63,33.14-6.42,9.08-16.1,15.54-29.03,19.39,7.79,11.05,15.41,22.52,22.86,34.42,7.45,11.9,14.6,24.1,21.45,36.6h-31.47c-6.25-12.16-12.82-24.02-19.72-35.58-6.89-11.56-13.64-22.13-20.23-31.72h-51.63v67.3h-26.97Zm74.37-154.77h-47.39v62.93h47.39c14.56,0,25.26-2.59,32.11-7.77,6.85-5.18,10.27-13.08,10.27-23.7s-3.43-18.52-10.27-23.7c-6.85-5.18-17.55-7.77-32.11-7.77Z"/><path class="f" d="M1319.56,630.83v-179.81h75.26c22.52,0,39.34,5.37,50.48,16.12,11.13,10.75,16.7,25.32,16.7,43.73s-5.57,32.88-16.7,43.67c-11.13,10.79-27.96,16.18-50.48,16.18h-48.29v60.11h-26.97Zm72.7-154.64h-45.72v69.36h45.72c14.64,0,25.32-2.89,32.04-8.67,6.72-5.78,10.08-14.45,10.08-26.01s-3.36-20.23-10.08-26.01c-6.72-5.78-17.4-8.67-32.04-8.67Z"/></g><path class="f" d="M805.21,490.49c-7.44-10.07-48.46-49.48-48.46-37.66,0,7.62-.15,17.08-.15,17.08-37.22,0-81.45-6.66-112.58,30.69-31.96,38.35-63.06,78.04-91.08,78.1l-2.89,.08c-9.4-.82-20.35-2.44-28.98-6.2-18.89-8.24-30.85-26.47-43.42-41.92-10.14-12.47-30.63,3.69-22.16,17.1,22.86,36.21,63.24,67.31,109.57,59.9l-.13-.02c7.46-.92,14.61-2.71,20.81-5.56,27.39-12.6,58.02-46.07,73.17-67.32,24.96-35.03,56.61-34.15,87.18-33.75l52.54-.11s14.01-.33,6.57-10.4Z"/><path class="h" d="M798.65,580.32l-52.54-.11c-30.57,.4-62.22,1.28-87.18-33.75-15.14-21.25-38.23-48.6-66.91-63.86-9.16-4.87-28.71-9.62-39.06-9.57h0c-40.89-1.97-76.73,27.81-97.45,60.74-8.45,13.42,12.02,29.56,22.16,17.1,12.57-15.45,24.53-33.68,43.42-41.92,8.62-3.76,19.55-5.98,28.98-6.2,16.71-.39,28.7,9.09,39.06,17.4,17.71,15.09,36.16,37.98,54.91,60.47,31.13,37.35,75.36,30.69,112.57,30.69,0,0,.15,9.46,.15,17.08,0,11.82,41.01-27.59,48.46-37.66,7.44-10.07-6.57-10.4-6.57-10.4Z"/></g><g id="d"/><g id="e"/></svg>