<?xml version="1.0" encoding="UTF-8"?><svg xmlns="http://www.w3.org/2000/svg" viewBox="0 0 1275.01 720"><defs><style>.f{fill:#006b4e;}.g{fill:#fff;}.h{fill:#289664;}</style></defs><g id="a"><rect class="g" x="-.22" width="1273.62" height="719.49"/></g><g id="b"><g id="c"/><g><path class="f" d="M589.79,417.43v-129.88h23.19l45.46,79.69,45.18-79.69h23.19v129.88h-18.93v-102.79l-40.63,71.62h-17.91l-40.64-71.16v102.33h-18.93Z"/><path class="f" d="M759.1,417.43v-129.88h55.57c16.27,0,28.45,3.66,36.55,10.99,8.1,7.33,12.15,17.21,12.15,29.64,0,9.4-2.32,17.38-6.96,23.94-4.64,6.56-11.63,11.23-20.97,14.01,5.63,7.98,11.13,16.27,16.51,24.86,5.38,8.6,10.54,17.41,15.49,26.44h-22.73c-4.52-8.78-9.26-17.35-14.24-25.7-4.98-8.35-9.85-15.99-14.61-22.92h-37.3v48.61h-19.48Zm53.72-111.79h-34.23v45.46h34.23c10.51,0,18.24-1.87,23.19-5.61,4.95-3.74,7.42-9.45,7.42-17.12s-2.47-13.37-7.42-17.12c-4.95-3.74-12.68-5.61-23.19-5.61Z"/><path class="f" d="M894.64,417.43v-129.88h54.37c16.27,0,28.42,3.88,36.46,11.64,8.04,7.76,12.06,18.29,12.06,31.59s-4.02,23.75-12.06,31.54c-8.04,7.79-20.19,11.69-36.46,11.69h-34.88v43.42h-19.48Zm52.51-111.7h-33.03v50.1h33.03c10.58,0,18.29-2.09,23.15-6.26,4.85-4.17,7.28-10.44,7.28-18.79s-2.43-14.61-7.28-18.79c-4.86-4.17-12.57-6.26-23.15-6.26Z"/></g><path class="f" d="M523.12,316.05c-5.38-7.27-35-35.74-35-27.2,0,5.5-.11,12.34-.11,12.34-26.89,0-58.83-4.81-81.32,22.17-23.09,27.7-45.55,56.37-65.79,56.41l-2.09,.06c-6.79-.59-14.7-1.76-20.93-4.48-13.64-5.95-22.29-19.12-31.36-30.28-7.33-9.01-22.12,2.66-16.01,12.35,16.51,26.16,45.68,48.62,79.15,43.27h-.09c5.39-.67,10.55-1.97,15.03-4.03,19.78-9.1,41.91-33.28,52.85-48.63,18.03-25.3,40.89-24.67,62.97-24.38l37.95-.08s10.12-.24,4.74-7.51Z"/><path class="h" d="M518.37,380.94l-37.95-.08c-22.08,.29-44.94,.92-62.97-24.38-10.94-15.35-27.61-35.11-48.33-46.13-6.62-3.52-20.74-6.95-28.21-6.91h0c-29.54-1.42-55.43,20.09-70.39,43.87-6.1,9.7,8.68,21.36,16.01,12.35,9.08-11.16,17.72-24.33,31.36-30.28,6.23-2.72,14.12-4.32,20.93-4.48,12.07-.28,20.73,6.57,28.21,12.57,12.79,10.9,26.12,27.43,39.66,43.68,22.48,26.98,54.43,22.17,81.32,22.17,0,0,.11,6.83,.11,12.34,0,8.54,29.62-19.93,35-27.2,5.38-7.27-4.74-7.51-4.74-7.51Z"/></g><g id="d"/><g id="e"/></svg>