{
  "accessors": [
    {
      "bufferView": 2,
      "componentType": 5126,
      "count": 90,
      "max": [
        1.0438892841339111,
        0.9927977919578552,
        1.060727596282959
      ],
      "min": [
        -1.0438892841339111,
        -0.9927977919578552,
        -1.060727596282959
      ],
      "type": "VEC3"
    },
    {
      "bufferView": 2,
      "byteOffset": 1080,
      "componentType": 5126,
      "count": 90,
      "max": [
        0.8613715767860413,
        0.9546706080436707,
        0.8630544543266296
      ],
      "min": [
        -0.8473592400550842,
        -0.9343844652175903,
        -0.9187729954719543
      ],
      "type": "VEC3"
    },
    {
      "bufferView": 1,
      "componentType": 5126,
      "count": 90,
      "max": [
        0.9988898634910583,
        0.9985982775688171
      ],
      "min": [
        0.001110133365727961,
        0.0014017393114045262
      ],
      "type": "VEC2"
    },
    {
      "bufferView": 0,
      "componentType": 5125,
      "count": 90,
      "type": "SCALAR"
    }
  ],
  "asset": {
    "extras": {
      "author": "mankindforward (https://sketchfab.com/mankindforward)",
      "license": "CC-BY-4.0 (http://creativecommons.org/licenses/by/4.0/)",
      "source": "https://sketchfab.com/3d-models/low-poly-ball-rock-b40efb651e864113b88f62810567a2ad",
      "title": "Low Poly Ball Rock"
    },
    "generator": "Sketchfab-12.68.0",
    "version": "2.0"
  },
  "bufferViews": [
    {
      "buffer": 0,
      "byteLength": 360,
      "name": "floatBufferViews",
      "target": 34963
    },
    {
      "buffer": 0,
      "byteLength": 720,
      "byteOffset": 360,
      "byteStride": 8,
      "name": "floatBufferViews",
      "target": 34962
    },
    {
      "buffer": 0,
      "byteLength": 2160,
      "byteOffset": 1080,
      "byteStride": 12,
      "name": "floatBufferViews",
      "target": 34962
    }
  ],
  "buffers": [
    {
      "byteLength": 3240,
      "uri": "scene.bin"
    }
  ],
  "materials": [
    {
      "doubleSided": true,
      "name": "rock01-1480515378914-355-619-523",
      "pbrMetallicRoughness": {
        "baseColorFactor": [
          0.354509,
          0.618912,
          0.523139,
          1.0
        ],
        "metallicFactor": 0.0,
        "roughnessFactor": 0.6
      }
    }
  ],
  "meshes": [
    {
      "name": "rock01_rock01-1480515378914-355-619-523_0",
      "primitives": [
        {
          "attributes": {
            "NORMAL": 1,
            "POSITION": 0,
            "TEXCOORD_0": 2
          },
          "indices": 3,
          "material": 0,
          "mode": 4
        }
      ]
    }
  ],
  "nodes": [
    {
      "children": [
        1
      ],
      "matrix": [
        1.1578783988952637,
        0.0,
        0.0,
        0.0,
        0.0,
        2.5710065163392663e-16,
        -1.1578783988952637,
        0.0,
        0.0,
        1.1578783988952637,
        2.5710065163392663e-16,
        0.0,
        0.0,
        0.0,
        0.0,
        1.0
      ],
      "name": "Sketchfab_model"
    },
    {
      "children": [
        2
      ],
      "matrix": [
        1.0,
        0.0,
        0.0,
        0.0,
        0.0,
        0.0,
        1.0,
        0.0,
        0.0,
        -1.0,
        0.0,
        0.0,
        0.0,
        0.0,
        0.0,
        1.0
      ],
      "name": "rock01-1480515378919.fbx"
    },
    {
      "children": [
        3
      ],
      "name": "RootNode"
    },
    {
      "children": [
        4
      ],
      "matrix": [
        100.0,
        0.0,
        0.0,
        0.0,
        0.0,
        -1.629206793918314e-05,
        -99.99999999999868,
        0.0,
        0.0,
        99.99999999999868,
        -1.629206793918314e-05,
        0.0,
        0.0,
        0.0,
        0.0,
        1.0
      ],
      "name": "rock01"
    },
    {
      "mesh": 0,
      "name": "rock01_rock01-1480515378914-355-619-523_0"
    }
  ],
  "scene": 0,
  "scenes": [
    {
      "name": "Sketchfab_Scene",
      "nodes": [
        0
      ]
    }
  ]
}
