{
  "accessors": [
    {
      "bufferView": 2,
      "componentType": 5126,
      "count": 112,
      "max": [
        2.2514946460723877,
        2.6834850311279297,
        1.9184627532958984
      ],
      "min": [
        -2.3019416332244873,
        -0.8727015256881714,
        -0.5215224027633667
      ],
      "type": "VEC3"
    },
    {
      "bufferView": 2,
      "byteOffset": 1344,
      "componentType": 5126,
      "count": 112,
      "max": [
        0.9870975613594055,
        0.9991856217384338,
        0.9991581439971924
      ],
      "min": [
        -0.9868202805519104,
        -0.9995532035827637,
        -0.9991581439971924
      ],
      "type": "VEC3"
    },
    {
      "bufferView": 1,
      "componentType": 5126,
      "count": 112,
      "max": [
        0.9788176417350769,
        0.9818694591522217
      ],
      "min": [
        0.018403586000204086,
        0.019684497267007828
      ],
      "type": "VEC2"
    },
    {
      "bufferView": 0,
      "componentType": 5125,
      "count": 402,
      "type": "SCALAR"
    }
  ],
  "asset": {
    "extras": {
      "author": "elements (https://sketchfab.com/elements.resources)",
      "license": "CC-BY-4.0 (http://creativecommons.org/licenses/by/4.0/)",
      "source": "https://sketchfab.com/3d-models/apple-36c5a7d36196442fb03e61d218a4a08e",
      "title": "Apple"
    },
    "generator": "Sketchfab-12.68.0",
    "version": "2.0"
  },
  "bufferViews": [
    {
      "buffer": 0,
      "byteLength": 1608,
      "name": "floatBufferViews",
      "target": 34963
    },
    {
      "buffer": 0,
      "byteLength": 896,
      "byteOffset": 1608,
      "byteStride": 8,
      "name": "floatBufferViews",
      "target": 34962
    },
    {
      "buffer": 0,
      "byteLength": 2688,
      "byteOffset": 2504,
      "byteStride": 12,
      "name": "floatBufferViews",
      "target": 34962
    }
  ],
  "buffers": [
    {
      "byteLength": 5192,
      "uri": "scene.bin"
    }
  ],
  "images": [
    {
      "uri": "textures/apple_baseColor.png"
    }
  ],
  "materials": [
    {
      "doubleSided": true,
      "name": "apple",
      "pbrMetallicRoughness": {
        "baseColorTexture": {
          "index": 0
        },
        "metallicFactor": 0.0,
        "roughnessFactor": 0.8211145618000169
      }
    }
  ],
  "meshes": [
    {
      "name": "Plane.001_apple_0",
      "primitives": [
        {
          "attributes": {
            "NORMAL": 1,
            "POSITION": 0,
            "TEXCOORD_0": 2
          },
          "indices": 3,
          "material": 0,
          "mode": 4
        }
      ]
    }
  ],
  "nodes": [
    {
      "children": [
        1
      ],
      "matrix": [
        0.9999858140945435,
        -0.005324019584804773,
        -1.1821698253211051e-18,
        0.0,
        0.0,
        2.220446049250313e-16,
        -1.0,
        0.0,
        0.005324019584804773,
        0.9999858140945435,
        2.220414550212587e-16,
        0.0,
        -38.09653854370117,
        4.0550384521484295,
        36.59345245361328,
        1.0
      ],
      "name": "Sketchfab_model"
    },
    {
      "children": [
        2
      ],
      "matrix": [
        1.0,
        0.0,
        0.0,
        0.0,
        0.0,
        0.0,
        1.0,
        0.0,
        0.0,
        -1.0,
        0.0,
        0.0,
        0.0,
        0.0,
        0.0,
        1.0
      ],
      "name": "apple.fbx"
    },
    {
      "children": [
        3
      ],
      "name": "RootNode"
    },
    {
      "children": [
        4
      ],
      "matrix": [
        36.71288619133465,
        -0.8360776502421857,
        37.11701521577306,
        0.0,
        47.79295827036521,
        46.448916112234215,
        -46.226306913778465,
        0.0,
        -33.82738177143911,
        69.66667654737064,
        35.028343760817165,
        0.0,
        0.0,
        14.993947982788086,
        0.0,
        1.0
      ],
      "name": "Plane.001"
    },
    {
      "mesh": 0,
      "name": "Plane.001_apple_0"
    }
  ],
  "samplers": [
    {
      "magFilter": 9729,
      "minFilter": 9987,
      "wrapS": 10497,
      "wrapT": 10497
    }
  ],
  "scene": 0,
  "scenes": [
    {
      "name": "Sketchfab_Scene",
      "nodes": [
        0
      ]
    }
  ],
  "textures": [
    {
      "sampler": 0,
      "source": 0
    }
  ]
}
