{
  "accessors": [
    {
      "bufferView": 2,
      "componentType": 5126,
      "count": 1804,
      "max": [
        5.504913806915283,
        4.594905376434326,
        1.2579011917114258
      ],
      "min": [
        -3.645189046859741,
        -3.5776522159576416,
        -1.2579011917114258
      ],
      "type": "VEC3"
    },
    {
      "bufferView": 2,
      "byteOffset": 21648,
      "componentType": 5126,
      "count": 1804,
      "max": [
        0.9995347261428833,
        0.9975095987319946,
        1.0
      ],
      "min": [
        -1.0,
        -0.9996170401573181,
        -1.0
      ],
      "type": "VEC3"
    },
    {
      "bufferView": 1,
      "componentType": 5126,
      "count": 1804,
      "max": [
        1.0000001192092896,
        1.0000001192092896
      ],
      "min": [
        0.0,
        0.0
      ],
      "type": "VEC2"
    },
    {
      "bufferView": 0,
      "componentType": 5125,
      "count": 2724,
      "type": "SCALAR"
    },
    {
      "bufferView": 2,
      "byteOffset": 43296,
      "componentType": 5126,
      "count": 40,
      "max": [
        -3.2256741523742676,
        1.7439966201782227,
        0.4815649092197418
      ],
      "min": [
        -3.2998316287994385,
        1.6067602634429932,
        -0.4815649092197418
      ],
      "type": "VEC3"
    },
    {
      "bufferView": 2,
      "byteOffset": 43776,
      "componentType": 5126,
      "count": 40,
      "max": [
        -0.7034375667572021,
        0.6273919343948364,
        0.620668351650238
      ],
      "min": [
        -0.9783425331115723,
        -0.6286380290985107,
        -0.6206679344177246
      ],
      "type": "VEC3"
    },
    {
      "bufferView": 1,
      "byteOffset": 14432,
      "componentType": 5126,
      "count": 40,
      "max": [
        0.0,
        1.0
      ],
      "min": [
        0.0,
        0.9999999403953552
      ],
      "type": "VEC2"
    },
    {
      "bufferView": 0,
      "byteOffset": 10896,
      "componentType": 5125,
      "count": 60,
      "type": "SCALAR"
    },
    {
      "bufferView": 2,
      "byteOffset": 44256,
      "componentType": 5126,
      "count": 8,
      "max": [
        -3.617016077041626,
        1.4627081155776978,
        0.05761795863509178
      ],
      "min": [
        -3.645189046859741,
        1.3567206859588623,
        -0.05761795863509178
      ],
      "type": "VEC3"
    },
    {
      "bufferView": 2,
      "byteOffset": 44352,
      "componentType": 5126,
      "count": 8,
      "max": [
        -0.9705930948257446,
        -0.2126428484916687,
        0.11283580213785172
      ],
      "min": [
        -0.9705932140350342,
        -0.212643563747406,
        -0.11283578723669052
      ],
      "type": "VEC3"
    },
    {
      "bufferView": 1,
      "byteOffset": 14752,
      "componentType": 5126,
      "count": 8,
      "max": [
        0.0,
        1.0
      ],
      "min": [
        0.0,
        0.48231351375579834
      ],
      "type": "VEC2"
    },
    {
      "bufferView": 0,
      "byteOffset": 11136,
      "componentType": 5125,
      "count": 12,
      "type": "SCALAR"
    }
  ],
  "asset": {
    "extras": {
      "author": "Jeneko (https://sketchfab.com/jeneko)",
      "license": "CC-BY-4.0 (http://creativecommons.org/licenses/by/4.0/)",
      "source": "https://sketchfab.com/3d-models/cat-bbe9be008cf5465a903ba0aa1b540e51",
      "title": "Cat"
    },
    "generator": "Sketchfab-12.68.0",
    "version": "2.0"
  },
  "bufferViews": [
    {
      "buffer": 0,
      "byteLength": 11184,
      "name": "floatBufferViews",
      "target": 34963
    },
    {
      "buffer": 0,
      "byteLength": 14816,
      "byteOffset": 11184,
      "byteStride": 8,
      "name": "floatBufferViews",
      "target": 34962
    },
    {
      "buffer": 0,
      "byteLength": 44448,
      "byteOffset": 26000,
      "byteStride": 12,
      "name": "floatBufferViews",
      "target": 34962
    }
  ],
  "buffers": [
    {
      "byteLength": 70448,
      "uri": "scene.bin"
    }
  ],
  "materials": [
    {
      "doubleSided": true,
      "name": "Material.001",
      "pbrMetallicRoughness": {
        "baseColorFactor": [
          0.137584,
          0.137584,
          0.137584,
          1.0
        ],
        "metallicFactor": 0.0,
        "roughnessFactor": 0.9692352823
      }
    },
    {
      "doubleSided": true,
      "name": "Material.002",
      "pbrMetallicRoughness": {
        "metallicFactor": 0.0,
        "roughnessFactor": 0.7763932023
      }
    },
    {
      "doubleSided": true,
      "name": "Material.003",
      "pbrMetallicRoughness": {
        "baseColorFactor": [
          0.8,
          0.8,
          0.8,
          1.0
        ],
        "metallicFactor": 0.0,
        "roughnessFactor": 0.8211145618
      }
    }
  ],
  "meshes": [
    {
      "name": "Plane_Material.001_0",
      "primitives": [
        {
          "attributes": {
            "NORMAL": 1,
            "POSITION": 0,
            "TEXCOORD_0": 2
          },
          "indices": 3,
          "material": 0,
          "mode": 4
        }
      ]
    },
    {
      "name": "Plane_Material.002_0",
      "primitives": [
        {
          "attributes": {
            "NORMAL": 5,
            "POSITION": 4,
            "TEXCOORD_0": 6
          },
          "indices": 7,
          "material": 1,
          "mode": 4
        }
      ]
    },
    {
      "name": "Plane_Material.003_0",
      "primitives": [
        {
          "attributes": {
            "NORMAL": 9,
            "POSITION": 8,
            "TEXCOORD_0": 10
          },
          "indices": 11,
          "material": 2,
          "mode": 4
        }
      ]
    }
  ],
  "nodes": [
    {
      "children": [
        1
      ],
      "matrix": [
        1.0,
        0.0,
        0.0,
        0.0,
        0.0,
        2.220446049250313e-16,
        -1.0,
        0.0,
        0.0,
        1.0,
        2.220446049250313e-16,
        0.0,
        0.0,
        -4.035776441924087e-07,
        -5.475023499457166e-06,
        1.0
      ],
      "name": "Sketchfab_model"
    },
    {
      "children": [
        2
      ],
      "matrix": [
        1.0,
        0.0,
        0.0,
        0.0,
        0.0,
        0.0,
        1.0,
        0.0,
        0.0,
        -1.0,
        0.0,
        0.0,
        0.0,
        0.0,
        0.0,
        1.0
      ],
      "name": "d966ba16f18e47c8ad6ae54d71b569f7.fbx"
    },
    {
      "children": [
        3,
        6,
        8
      ],
      "name": "RootNode"
    },
    {
      "children": [
        4
      ],
      "matrix": [
        -29.08647719990347,
        -5.518906457566863,
        -95.51711910171437,
        0.0,
        56.63930913109449,
        79.46723428563203,
        -21.83912397841966,
        0.0,
        77.11008775993375,
        -60.45246356562044,
        -19.98834696773717,
        0.0,
        407.6245422363281,
        590.38623046875,
        -100.54539489746094,
        1.0
      ],
      "name": "Light"
    },
    {
      "children": [
        5
      ],
      "matrix": [
        1.0,
        0.0,
        0.0,
        0.0,
        0.0,
        2.220446049250313e-16,
        1.0,
        0.0,
        0.0,
        -1.0,
        2.220446049250313e-16,
        0.0,
        0.0,
        0.0,
        0.0,
        1.0
      ],
      "name": "Object_4"
    },
    {
      "name": "Object_5"
    },
    {
      "children": [
        7
      ],
      "matrix": [
        -65.15583280329096,
        -44.52713576570858,
        -61.41703047373549,
        0.0,
        -32.40134137821245,
        89.53957451233616,
        -30.542088974418615,
        0.0,
        68.59205472129975,
        -1.0718647115348782e-05,
        -72.7676336239627,
        0.0,
        735.88916015625,
        495.8309326171875,
        692.5791015625,
        1.0
      ],
      "name": "Camera"
    },
    {
      "name": "Object_7"
    },
    {
      "children": [
        9,
        10,
        11
      ],
      "matrix": [
        32.4054069519043,
        0.0,
        0.0,
        0.0,
        0.0,
        32.40540695190426,
        1.4164853258644453e-06,
        0.0,
        0.0,
        -1.4164853258644453e-06,
        32.40540695190426,
        0.0,
        -37.37253952026367,
        119.4097900390625,
        1.6043763025663793e-05,
        1.0
      ],
      "name": "Plane"
    },
    {
      "mesh": 0,
      "name": "Plane_Material.001_0"
    },
    {
      "mesh": 1,
      "name": "Plane_Material.002_0"
    },
    {
      "mesh": 2,
      "name": "Plane_Material.003_0"
    }
  ],
  "scene": 0,
  "scenes": [
    {
      "name": "Sketchfab_Scene",
      "nodes": [
        0
      ]
    }
  ]
}
