<svg viewBox="0 0 6 6" xmlns="http://www.w3.org/2000/svg" shape-rendering="crispEdges" width="40mm" height="40mm"><rect x="0" y="0" width="6" height="6" fill="black"></rect><rect width="1" height="1" x="1" y="1" fill="white"></rect><rect width="1" height="1" x="2" y="1" fill="white"></rect><rect width="1" height="1" x="3" y="1" fill="black"></rect><rect width="1" height="1" x="4" y="1" fill="black"></rect><rect width="1" height="1" x="1" y="2" fill="white"></rect><rect width="1" height="1" x="2" y="2" fill="white"></rect><rect width="1" height="1" x="3" y="2" fill="black"></rect><rect width="1" height="1" x="4" y="2" fill="black"></rect><rect width="1" height="1" x="1" y="3" fill="white"></rect><rect width="1" height="1" x="2" y="3" fill="white"></rect><rect width="1" height="1" x="3" y="3" fill="black"></rect><rect width="1" height="1" x="4" y="3" fill="white"></rect><rect width="1" height="1" x="1" y="4" fill="black"></rect><rect width="1" height="1" x="2" y="4" fill="white"></rect><rect width="1" height="1" x="3" y="4" fill="black"></rect><rect width="1" height="1" x="4" y="4" fill="white"></rect></svg>